# xmcd
#
# Track frame offsets: 
#        150
#        11547
#        24100
#        35936
#        46859
#        69215
#        79963
#        89479
#        97672
#        110354
#        122271
#        138844
#        153386
#        162545
#        168342
#        176423
#        186232
#        199370
#        206741
#        219002
#        235568
#        253039
#        262267
#        276415
#        287827
#        300641
#        311961
#        322968
#
# Disc length: 4484 seconds
#
# Revision: 0
# Processed by: cddbd v1.5.2PL0 Copyright (c) Steve Scherf et al.
# Submitted via: ExactAudioCopyFreeDBPlugin 1.0
#
DISCID=8511821c
DTITLE=Various Artist - Attack of the One-Man Bands
DYEAR=2007
DGENRE=Country Rock
TTITLE0=Al Foul - I Know I'm Gonna Die Tonight (But I Don't Care) 
TTITLE1=Bloodshot Bill  - Been Tellin' Lies
TTITLE2=Phillip Roebuck  - Jackass Blues
TTITLE3=Rollie Tussing  - Milwaukee Blues
TTITLE4=Lonesome Joseph - If You Love Me
TTITLE5=Slim Sandy  - You Can't Fool Me
TTITLE6=King Louie (2) - Walkin' And A-Steppin' In The Fire
TTITLE7=Haunted George - Howlin'
TTITLE8=Sachtrash - Stay Out And Down
TTITLE9=Fredovitch One Man Band* - Troublin' Time
TTITLE10=1Man Banjo  - Mole 
TTITLE11=Toothless George* - I Fuckin' Suck (In G. Maj.)
TTITLE12=Royer's One Man Band - Train On The Island
TTITLE13=Dead Elvis and The One Man Grave* - Long Gone, Dead And Done
TTITLE14=Mr. Bonz One Man Band - Wild Party
TTITLE15=Chuck Violence - Introducing Chuck Violence
TTITLE16=Dennis Hopper Choppers - Lust 
TTITLE17=Bram Riddlebarger and His Lonesome Band - Rhythm and Soul
TTITLE18=Trainwreck Washington - Walked All Night
TTITLE19=Ghostwriter (3)  - Preacher's Daughter
TTITLE20=Esmerelda Strange - Que Viva La Chava
TTITLE21=J. Marinelli  - Lying In State
TTITLE22=Big One Man Band - Too Much Bad In My Blood (To Be Good)
TTITLE23=Long Boy Larsen  - When You're Far Away
TTITLE24=Mississipi Grover - I'm Buried Alive
TTITLE25=Twang Tango - Drinking Every Night
TTITLE26=The Slow Poisoner - Purgatory Rock
TTITLE27=Stringybark McDowell  - Kyleeee
EXTD=
EXTT0=
EXTT1=
EXTT2=
EXTT3=
EXTT4=
EXTT5=
EXTT6=
EXTT7=
EXTT8=
EXTT9=
EXTT10=
EXTT11=
EXTT12=
EXTT13=
EXTT14=
EXTT15=
EXTT16=
EXTT17=
EXTT18=
EXTT19=
EXTT20=
EXTT21=
EXTT22=
EXTT23=
EXTT24=
EXTT25=
EXTT26=
EXTT27=
PLAYORDER=
